<svg xmlns="http://www.w3.org/2000/svg" xmlns:xlink="http://www.w3.org/1999/xlink" contentStyleType="text/css" height="496.875px" preserveAspectRatio="none" style="width:760px;height:496px;" version="1.1" viewBox="0 0 760 496" width="760.4167px" zoomAndPan="magnify"><defs><linearGradient id="g1biynla9rd30s0" x1="50%" x2="50%" y1="0%" y2="100%"><stop offset="0%" stop-color="#59B6EC"/><stop offset="100%" stop-color="#2FA4E7"/></linearGradient></defs><g><!--cluster Frontend (React)--><g id="cluster_Frontend (React)"><path d="M298.0417,16.6667 L426.5654,16.6667 A6.25,6.25 0 0 1 430.7321,20.8333 L438.0238,47.8841 L462.625,47.8841 A4.1667,4.1667 0 0 1 466.7917,52.0508 L466.7917,129.1354 A4.1667,4.1667 0 0 1 462.625,133.3021 L298.0417,133.3021 A4.1667,4.1667 0 0 1 293.875,129.1354 L293.875,20.8333 A4.1667,4.1667 0 0 1 298.0417,16.6667 " fill="none" style="stroke:#59B6EC;stroke-width:2.0833333333333335;"/><line style="stroke:#59B6EC;stroke-width:2.0833333333333335;" x1="293.875" x2="438.0238" y1="47.8841" y2="47.8841"/><text fill="#2FA4E7" font-family="Verdana" font-size="12.5" font-weight="bold" lengthAdjust="spacing" textLength="120.1904" x="303.25" y="35.5611">Frontend (React)</text></g><!--cluster Backend (Go)--><g id="cluster_Backend (Go)"><path d="M309.5,192.6771 L412.4683,192.6771 A6.25,6.25 0 0 1 416.635,196.8438 L423.9267,223.8945 L451.1667,223.8945 A4.1667,4.1667 0 0 1 455.3333,228.0612 L455.3333,305.1458 A4.1667,4.1667 0 0 1 451.1667,309.3125 L309.5,309.3125 A4.1667,4.1667 0 0 1 305.3333,305.1458 L305.3333,196.8438 A4.1667,4.1667 0 0 1 309.5,192.6771 " fill="none" style="stroke:#59B6EC;stroke-width:2.0833333333333335;"/><line style="stroke:#59B6EC;stroke-width:2.0833333333333335;" x1="305.3333" x2="423.9267" y1="223.8945" y2="223.8945"/><text fill="#2FA4E7" font-family="Verdana" font-size="12.5" font-weight="bold" lengthAdjust="spacing" textLength="94.635" x="314.7083" y="211.5715">Backend (Go)</text></g><!--cluster Database (MySQL)--><g id="cluster_Database (MySQL)"><path d="M57.4167,368.6875 L196.231,368.6875 A6.25,6.25 0 0 1 200.3976,372.8542 L207.6893,399.9049 L702.2083,399.9049 A4.1667,4.1667 0 0 1 706.375,404.0716 L706.375,481.1563 A4.1667,4.1667 0 0 1 702.2083,485.3229 L57.4167,485.3229 A4.1667,4.1667 0 0 1 53.25,481.1563 L53.25,372.8542 A4.1667,4.1667 0 0 1 57.4167,368.6875 " fill="none" style="stroke:#59B6EC;stroke-width:2.0833333333333335;"/><line style="stroke:#59B6EC;stroke-width:2.0833333333333335;" x1="53.25" x2="207.6893" y1="399.9049" y2="399.9049"/><text fill="#2FA4E7" font-family="Verdana" font-size="12.5" font-weight="bold" lengthAdjust="spacing" textLength="130.481" x="62.625" y="387.5819">Database (MySQL)</text></g><!--entity User Interface--><g id="elem_User Interface"><rect fill="url(#g1biynla9rd30s0)" height="56.2174" rx="4.1667" ry="4.1667" style="stroke:#2FA4E7;stroke-width:1.0416666666666667;" width="140.5111" x="310.0729" y="60.4167"/><rect fill="url(#g1biynla9rd30s0)" height="10.4167" style="stroke:#2FA4E7;stroke-width:1.0416666666666667;" width="15.625" x="429.7507" y="65.625"/><rect fill="url(#g1biynla9rd30s0)" height="2.0833" style="stroke:#2FA4E7;stroke-width:1.0416666666666667;" width="4.1667" x="427.6673" y="67.7083"/><rect fill="url(#g1biynla9rd30s0)" height="2.0833" style="stroke:#2FA4E7;stroke-width:1.0416666666666667;" width="4.1667" x="427.6673" y="71.875"/><text fill="#FFFFFF" font-family="Verdana" font-size="12.5" lengthAdjust="spacing" textLength="88.4277" x="330.9063" y="98.0611">User Interface</text></g><!--entity API Server--><g id="elem_API Server"><rect fill="url(#g1biynla9rd30s0)" height="56.2174" rx="4.1667" ry="4.1667" style="stroke:#2FA4E7;stroke-width:1.0416666666666667;" width="116.8233" x="321.9167" y="236.4271"/><rect fill="url(#g1biynla9rd30s0)" height="10.4167" style="stroke:#2FA4E7;stroke-width:1.0416666666666667;" width="15.625" x="417.9067" y="241.6354"/><rect fill="url(#g1biynla9rd30s0)" height="2.0833" style="stroke:#2FA4E7;stroke-width:1.0416666666666667;" width="4.1667" x="415.8233" y="243.7188"/><rect fill="url(#g1biynla9rd30s0)" height="2.0833" style="stroke:#2FA4E7;stroke-width:1.0416666666666667;" width="4.1667" x="415.8233" y="247.8854"/><text fill="#FFFFFF" font-family="Verdana" font-size="12.5" lengthAdjust="spacing" textLength="64.74" x="342.75" y="274.0715">API Server</text></g><!--entity User Table--><g id="elem_User Table"><rect fill="url(#g1biynla9rd30s0)" height="56.2174" rx="4.1667" ry="4.1667" style="stroke:#2FA4E7;stroke-width:1.0416666666666667;" width="118.9412" x="69.8125" y="412.4375"/><rect fill="url(#g1biynla9rd30s0)" height="10.4167" style="stroke:#2FA4E7;stroke-width:1.0416666666666667;" width="15.625" x="167.9204" y="417.6458"/><rect fill="url(#g1biynla9rd30s0)" height="2.0833" style="stroke:#2FA4E7;stroke-width:1.0416666666666667;" width="4.1667" x="165.8371" y="419.7292"/><rect fill="url(#g1biynla9rd30s0)" height="2.0833" style="stroke:#2FA4E7;stroke-width:1.0416666666666667;" width="4.1667" x="165.8371" y="423.8958"/><text fill="#FFFFFF" font-family="Verdana" font-size="12.5" lengthAdjust="spacing" textLength="66.8579" x="90.6458" y="450.0819">User Table</text></g><!--entity Post Table--><g id="elem_Post Table"><rect fill="url(#g1biynla9rd30s0)" height="56.2174" rx="4.1667" ry="4.1667" style="stroke:#2FA4E7;stroke-width:1.0416666666666667;" width="117.0492" x="224.9271" y="412.4375"/><rect fill="url(#g1biynla9rd30s0)" height="10.4167" style="stroke:#2FA4E7;stroke-width:1.0416666666666667;" width="15.625" x="321.1429" y="417.6458"/><rect fill="url(#g1biynla9rd30s0)" height="2.0833" style="stroke:#2FA4E7;stroke-width:1.0416666666666667;" width="4.1667" x="319.0596" y="419.7292"/><rect fill="url(#g1biynla9rd30s0)" height="2.0833" style="stroke:#2FA4E7;stroke-width:1.0416666666666667;" width="4.1667" x="319.0596" y="423.8958"/><text fill="#FFFFFF" font-family="Verdana" font-size="12.5" lengthAdjust="spacing" textLength="64.9658" x="245.7604" y="450.0819">Post Table</text></g><!--entity Message Table--><g id="elem_Message Table"><rect fill="url(#g1biynla9rd30s0)" height="56.2174" rx="4.1667" ry="4.1667" style="stroke:#2FA4E7;stroke-width:1.0416666666666667;" width="145.2352" x="378.5417" y="412.4375"/><rect fill="url(#g1biynla9rd30s0)" height="10.4167" style="stroke:#2FA4E7;stroke-width:1.0416666666666667;" width="15.625" x="502.9435" y="417.6458"/><rect fill="url(#g1biynla9rd30s0)" height="2.0833" style="stroke:#2FA4E7;stroke-width:1.0416666666666667;" width="4.1667" x="500.8602" y="419.7292"/><rect fill="url(#g1biynla9rd30s0)" height="2.0833" style="stroke:#2FA4E7;stroke-width:1.0416666666666667;" width="4.1667" x="500.8602" y="423.8958"/><text fill="#FFFFFF" font-family="Verdana" font-size="12.5" lengthAdjust="spacing" textLength="93.1519" x="399.375" y="450.0819">Message Table</text></g><!--entity Follow Table--><g id="elem_Follow Table"><rect fill="url(#g1biynla9rd30s0)" height="56.2174" rx="4.1667" ry="4.1667" style="stroke:#2FA4E7;stroke-width:1.0416666666666667;" width="130.1046" x="560.0729" y="412.4375"/><rect fill="url(#g1biynla9rd30s0)" height="10.4167" style="stroke:#2FA4E7;stroke-width:1.0416666666666667;" width="15.625" x="669.3442" y="417.6458"/><rect fill="url(#g1biynla9rd30s0)" height="2.0833" style="stroke:#2FA4E7;stroke-width:1.0416666666666667;" width="4.1667" x="667.2608" y="419.7292"/><rect fill="url(#g1biynla9rd30s0)" height="2.0833" style="stroke:#2FA4E7;stroke-width:1.0416666666666667;" width="4.1667" x="667.2608" y="423.8958"/><text fill="#FFFFFF" font-family="Verdana" font-size="12.5" lengthAdjust="spacing" textLength="78.0212" x="580.9063" y="450.0819">Follow Table</text></g><!--link User Interface to API Server--><g id="link_User Interface_API Server"><path d="M309.8021,113.2188 C293.5833,122.125 278.3333,134.0833 268.875,149.9688 C248.8021,183.6667 279.8838,211.7834 316.3629,232.9188 " fill="none" id="User Interface-to-API Server" style="stroke:#2FA4E7;stroke-width:3.125;"/><polygon fill="#2FA4E7" points="321.7708,236.0521,315.7478,227.747,317.2643,233.441,311.5702,234.9575,321.7708,236.0521" style="stroke:#2FA4E7;stroke-width:3.125;"/><text fill="#343A40" font-family="Verdana" font-size="12.5" lengthAdjust="spacing" textLength="163.6597" x="275.125" y="167.8215">HTTP Requests (REST API)</text></g><!--link API Server to User Interface--><g id="link_API Server_User Interface"><path d="M409.7083,236.1458 C424.6146,220.2292 441.1875,198.8333 449.0833,176.0104 C452.8646,165.0729 453.8542,160.5208 449.0833,149.9688 C443.3125,137.2292 438.1156,130.1997 427.5739,121.0955 " fill="none" id="API Server-to-User Interface" style="stroke:#2FA4E7;stroke-width:3.125;"/><polygon fill="#2FA4E7" points="422.8438,117.0104,427.2155,126.2915,426.7855,120.4147,432.6624,119.9847,422.8438,117.0104" style="stroke:#2FA4E7;stroke-width:3.125;"/><text fill="#343A40" font-family="Verdana" font-size="12.5" lengthAdjust="spacing" textLength="147.8271" x="458.4583" y="167.8215">HTTP Responses (JSON)</text></g><!--link API Server to User Table--><g id="link_API Server_User Table"><path d="M321.4688,267.2813 C233.9063,271.1979 75.8854,284.0417 40.75,325.9792 C16.6667,354.7188 46.1131,385.1409 78.8423,408.3909 " fill="none" id="API Server-to-User Table" style="stroke:#2FA4E7;stroke-width:3.125;"/><polygon fill="#2FA4E7" points="83.9375,412.0104,78.7077,403.1843,79.6915,408.9941,73.8816,409.9779,83.9375,412.0104" style="stroke:#2FA4E7;stroke-width:3.125;"/><text fill="#343A40" font-family="Verdana" font-size="12.5" lengthAdjust="spacing" textLength="202.6306" x="47" y="343.8319">Queries/Inserts/Updates/Deletes</text></g><!--link API Server to Post Table--><g id="link_API Server_Post Table"><path d="M321.6667,284.8333 C302.75,294.1458 283.875,307.4375 273.0417,325.9792 C257.6563,352.2917 262.6116,382.0901 270.5491,406.3922 " fill="none" id="API Server-to-Post Table" style="stroke:#2FA4E7;stroke-width:3.125;"/><polygon fill="#2FA4E7" points="272.4896,412.3333,273.5396,402.128,270.8725,407.3824,265.6181,404.7153,272.4896,412.3333" style="stroke:#2FA4E7;stroke-width:3.125;"/><text fill="#343A40" font-family="Verdana" font-size="12.5" lengthAdjust="spacing" textLength="146.637" x="279.2917" y="343.8319">Queries/Inserts/Deletes</text></g><!--link API Server to Message Table--><g id="link_API Server_Message Table"><path d="M415.1354,293.1042 C424.6771,302.4896 433.9583,313.7292 439.7083,325.9792 C452.4896,353.2396 454.3398,381.8992 453.5586,405.7742 " fill="none" id="API Server-to-Message Table" style="stroke:#2FA4E7;stroke-width:3.125;"/><polygon fill="#2FA4E7" points="453.3542,412.0208,457.8252,402.7871,453.5245,406.8153,449.4963,402.5146,453.3542,412.0208" style="stroke:#2FA4E7;stroke-width:3.125;"/><text fill="#343A40" font-family="Verdana" font-size="12.5" lengthAdjust="spacing" textLength="94.8425" x="453.25" y="343.8319">Queries/Inserts</text></g><!--link API Server to Follow Table--><g id="link_API Server_Follow Table"><path d="M439.1146,273.6667 C477.7604,281.5313 527.5,296.7708 562.625,325.9792 C589.9479,348.7083 605.2227,380.7497 614.5456,406.4476 " fill="none" id="API Server-to-Follow Table" style="stroke:#2FA4E7;stroke-width:3.125;"/><polygon fill="#2FA4E7" points="616.6771,412.3229,617.3967,402.089,614.9008,407.4268,609.563,404.931,616.6771,412.3229" style="stroke:#2FA4E7;stroke-width:3.125;"/><text fill="#343A40" font-family="Verdana" font-size="12.5" lengthAdjust="spacing" textLength="150.8362" x="591.7917" y="343.8319">Queries/Inserts/Updates</text></g><!--SRC=[TP11Jy9048Nl-oj6JlH0k7CmqI1Q8rfeEHaEGtc2iNRhpbPZZF_TAGRf2Ztjpklxjc_UcT_Y5PJ3rGMuD1NdBxm1zIREbXxbclfpSEwZ7dqPeiU5m56iNzmJvrYQRtD0BlMo8wxjtdwHn9J2lSE5rZ5xNh60-jFFT7ONl9xngi2IcZcnujlp528D_oiroiGMXVtO2_gB_mbfC3WFSj28Rh8ieJdUQeWNNV0gpKWTaGbyEx2TQ4Ip6kuPCenBbRqC5zMQlSvZ5D3p1D_Uu9Zlvi9DZz4JI515TzYk9LkL_JKabLLOAxfD7-wZ7m00]--></g></svg>